<?xml version="1.0" encoding="UTF-8" standalone="no"?>
<!-- Created with Inkscape (http://www.inkscape.org/) -->

<svg
   width="214.75"
   height="64"
   viewBox="0 0 56.81927 16.933334"
   version="1.1"
   id="svg5"
   inkscape:version="1.1.1 (3bf5ae0d25, 2021-09-20)"
   sodipodi:docname="block_move.svg"
   xmlns:inkscape="http://www.inkscape.org/namespaces/inkscape"
   xmlns:sodipodi="http://sodipodi.sourceforge.net/DTD/sodipodi-0.dtd"
   xmlns="http://www.w3.org/2000/svg"
   xmlns:svg="http://www.w3.org/2000/svg">
  <sodipodi:namedview
     id="namedview7"
     pagecolor="#505050"
     bordercolor="#eeeeee"
     borderopacity="1"
     inkscape:pageshadow="0"
     inkscape:pageopacity="0"
     inkscape:pagecheckerboard="0"
     inkscape:document-units="px"
     showgrid="false"
     inkscape:zoom="2.5620932"
     inkscape:cx="155.9272"
     inkscape:cy="59.326492"
     inkscape:window-width="1620"
     inkscape:window-height="1018"
     inkscape:window-x="-6"
     inkscape:window-y="-6"
     inkscape:window-maximized="1"
     inkscape:current-layer="layer1"
     units="px"
     width="64px"
     fit-margin-top="0"
     fit-margin-left="0"
     fit-margin-right="0"
     fit-margin-bottom="0" />
  <defs
     id="defs2" />
  <g
     inkscape:label="Layer 1"
     inkscape:groupmode="layer"
     id="layer1">
    <path
       style="fill:#ffffff;stroke-width:0.79375;stroke-linejoin:round"
       d="M 14.816667,0 12.7,2.1166665 H 6.3499994 L 4.2333334,0 H 0.038757 C 0.017313,0 0,0.017313 0,0.038757 V 12.66176 C -1.9999827e-7,12.6832 0.017313,12.7 0.038757,12.7 h 56.741756 c 0.02144,0 0.03876,-0.0168 0.03876,-0.03824 V 0.0387572 c 0,-0.021444 -0.01731,-0.038757 -0.03876,-0.038757 z"
       id="path4848" />
    <rect
       style="fill:#ffffff;stroke-width:1.35557;stroke-linejoin:round"
       id="rect3863"
       width="56.819252"
       height="12.7"
       x="0"
       y="2.1166668"
       ry="0.038707897" />
    <g
       aria-label="move left"
       id="text2125"
       style="font-size:10.5833px;line-height:1.25;font-family:'Segoe UI';-inkscape-font-specification:'Segoe UI';stroke-width:0.264583">
      <path
         d="M 13.534977,11.772601 H 12.687486 V 8.7340366 q 0,-0.8784966 -0.273884,-1.2712362 -0.268717,-0.3927396 -0.909502,-0.3927396 -0.542601,0 -0.925006,0.4960921 -0.377236,0.4960922 -0.377236,1.1885542 V 11.772601 H 9.3543669 V 8.630684 q 0,-1.5606232 -1.204057,-1.5606232 -0.5581037,0 -0.9198376,0.470254 Q 6.8687385,8.0054012 6.8687385,8.7547071 V 11.772601 H 6.0212477 V 6.4809513 h 0.8474908 v 0.8371555 h 0.02067 q 0.5632713,-0.9611785 1.6433053,-0.9611785 0.5426008,0 0.9456757,0.3048899 0.4030749,0.2997224 0.552936,0.7906469 0.58911,-1.0955368 1.756993,-1.0955368 1.746658,0 1.746658,2.1549003 z"
         id="path4957" />
      <path
         d="m 17.348686,11.896624 q -1.173051,0 -1.875849,-0.73897 -0.697629,-0.744139 -0.697629,-1.9688663 0,-1.3332477 0.728635,-2.0825536 0.728636,-0.7493058 1.968866,-0.7493058 1.183387,0 1.844843,0.7286353 0.666624,0.7286354 0.666624,2.0205421 0,1.2660683 -0.7183,2.0308773 -0.713133,0.759641 -1.91719,0.759641 z m 0.06201,-4.8265632 q -0.816486,0 -1.291907,0.5581037 -0.475422,0.552936 -0.475422,1.5296175 0,0.940508 0.480589,1.483109 0.48059,0.542601 1.28674,0.542601 0.821652,0 1.2609,-0.532266 0.444416,-0.532265 0.444416,-1.5141145 0,-0.9921844 -0.444416,-1.5296176 -0.439248,-0.5374331 -1.2609,-0.5374331 z"
         id="path4959" />
      <path
         d="M 25.498034,6.4809513 23.389642,11.772601 H 22.557654 L 20.552615,6.4809513 h 0.930173 l 1.343583,3.8447147 q 0.149861,0.423745 0.186035,0.73897 h 0.02067 q 0.05168,-0.397907 0.165364,-0.7183 l 1.405595,-3.8653847 z"
         id="path4961" />
      <path
         d="m 30.660492,9.3386489 h -3.736194 q 0.02067,0.8836641 0.475422,1.3642531 0.454751,0.48059 1.250565,0.48059 0.894,0 1.643306,-0.58911 v 0.795815 q -0.69763,0.506427 -1.844843,0.506427 -1.121375,0 -1.762161,-0.7183 -0.640786,-0.723468 -0.640786,-2.0308773 0,-1.2350628 0.69763,-2.0102068 0.702797,-0.7803116 1.74149,-0.7803116 1.038693,0 1.607132,0.6717914 0.568439,0.6717915 0.568439,1.8655133 z M 29.792331,8.6203488 q -0.0052,-0.733803 -0.356566,-1.1420455 -0.346231,-0.4082425 -0.966347,-0.4082425 -0.599444,0 -1.018022,0.428913 -0.418578,0.428913 -0.516763,1.121375 z"
         id="path4963" />
      <path
         d="M 35.688593,11.772601 H 34.841102 V 3.9384789 h 0.847491 z"
         id="path4965" />
      <path
         d="m 41.657202,9.3386489 h -3.736194 q 0.02067,0.8836641 0.475422,1.3642531 0.454751,0.48059 1.250565,0.48059 0.894,0 1.643306,-0.58911 v 0.795815 q -0.69763,0.506427 -1.844843,0.506427 -1.121375,0 -1.762161,-0.7183 -0.640786,-0.723468 -0.640786,-2.0308773 0,-1.2350628 0.69763,-2.0102068 0.702797,-0.7803116 1.74149,-0.7803116 1.038693,0 1.607132,0.6717914 0.568439,0.6717915 0.568439,1.8655133 z M 40.789041,8.6203488 q -0.0052,-0.733803 -0.356567,-1.1420455 -0.346231,-0.4082425 -0.966346,-0.4082425 -0.599444,0 -1.018022,0.428913 -0.418578,0.428913 -0.516763,1.121375 z"
         id="path4967" />
      <path
         d="m 45.553593,4.6826172 q -0.248046,-0.1395259 -0.563271,-0.1395259 -0.888832,0 -0.888832,1.121375 v 0.816485 h 1.24023 V 7.2044191 H 44.10149 V 11.772601 H 43.259167 V 7.2044191 H 42.354832 V 6.4809513 h 0.904335 v -0.857826 q 0,-0.8319879 0.480589,-1.3125772 0.480589,-0.485757 1.198889,-0.485757 0.387572,0 0.614948,0.093017 z"
         id="path4969" />
      <path
         d="m 48.705843,11.720925 q -0.299722,0.165364 -0.790647,0.165364 -1.390091,0 -1.390091,-1.550288 V 7.2044191 H 45.615602 V 6.4809513 h 0.909503 V 5.1890446 l 0.847491,-0.2738842 v 1.5657909 h 1.333247 V 7.2044191 H 47.372596 V 10.18614 q 0,0.532265 0.180866,0.759641 0.180867,0.227375 0.599445,0.227375 0.320393,0 0.552936,-0.175699 z"
         id="path4971" />
    </g>
    <path
       style="fill:#ffffff;stroke-width:0.79375;stroke-linejoin:round"
       d="m 3.175,13.758333 3.1750001,3.175 H 12.7 l 3.175,-3.175 z"
       id="path4222"
       sodipodi:nodetypes="ccccc" />
  </g>
</svg>
