<?xml version="1.0" encoding="UTF-8" standalone="no"?>
<!-- Created with Inkscape (http://www.inkscape.org/) -->

<svg
   width="256.51266"
   height="64"
   viewBox="0 0 67.868975 16.933334"
   version="1.1"
   id="svg5"
   inkscape:version="1.1.1 (3bf5ae0d25, 2021-09-20)"
   sodipodi:docname="block_move_2.svg"
   xmlns:inkscape="http://www.inkscape.org/namespaces/inkscape"
   xmlns:sodipodi="http://sodipodi.sourceforge.net/DTD/sodipodi-0.dtd"
   xmlns:xlink="http://www.w3.org/1999/xlink"
   xmlns="http://www.w3.org/2000/svg"
   xmlns:svg="http://www.w3.org/2000/svg">
  <sodipodi:namedview
     id="namedview7"
     pagecolor="#505050"
     bordercolor="#eeeeee"
     borderopacity="1"
     inkscape:pageshadow="0"
     inkscape:pageopacity="0"
     inkscape:pagecheckerboard="0"
     inkscape:document-units="px"
     showgrid="false"
     inkscape:zoom="1.8116734"
     inkscape:cx="95.215835"
     inkscape:cy="85.004282"
     inkscape:window-width="1620"
     inkscape:window-height="1018"
     inkscape:window-x="-6"
     inkscape:window-y="-6"
     inkscape:window-maximized="1"
     inkscape:current-layer="layer1"
     units="px"
     width="64px"
     fit-margin-top="0"
     fit-margin-left="0"
     fit-margin-right="0"
     fit-margin-bottom="0" />
  <defs
     id="defs2">
    <linearGradient
       inkscape:collect="always"
       id="linearGradient9518">
      <stop
         style="stop-color:#d3d3d3;stop-opacity:1"
         offset="0"
         id="stop9514" />
      <stop
         style="stop-color:#a9a9a9;stop-opacity:1"
         offset="1"
         id="stop9516" />
    </linearGradient>
    <linearGradient
       inkscape:collect="always"
       xlink:href="#linearGradient9518"
       id="linearGradient9520"
       x1="28.186417"
       y1="16.791153"
       x2="28.186417"
       y2="-1.6103421"
       gradientUnits="userSpaceOnUse" />
  </defs>
  <g
     inkscape:label="Layer 1"
     inkscape:groupmode="layer"
     id="layer1">
    <path
       id="rect3863"
       style="fill:url(#linearGradient9520);stroke-width:1.71071;stroke-linejoin:round;fill-opacity:1"
       d="M 2.0137107,0 H 65.855262 c 1.115596,0 2.013711,0.89811499 2.013711,2.0137107 V 14.919624 c 0,1.115595 -0.898115,2.01371 -2.013711,2.01371 H 2.0137107 C 0.89811499,16.933334 0,16.035219 0,14.919624 V 2.0137107 C 0,0.89811499 0.89811499,0 2.0137107,0 Z" />
    <g
       aria-label="move left"
       id="text8624"
       style="font-size:10.5833px;line-height:1.25;font-family:'Segoe UI';-inkscape-font-specification:'Segoe UI';stroke-width:0.264583">
      <path
         d="m 6.5688478,6.5745579 v 0.4392483 q 0.5529361,-0.5942771 1.1110398,-0.5942771 0.3358957,0 0.5891094,0.1808669 Q 8.5222107,6.7760953 8.6927424,7.1378292 8.9821295,6.7760953 9.2766842,6.600396 9.5764066,6.4195291 9.8761289,6.4195291 q 0.4702541,0 0.7493061,0.30489 0.366901,0.3927396 0.366901,0.857826 v 3.0333969 h 0.366902 q 0.155029,0 0.222208,0.06201 0.06718,0.05684 0.06718,0.155028 0,0.09302 -0.06718,0.155029 -0.06718,0.06201 -0.222208,0.06201 H 10.558256 V 7.6235861 q 0,-0.3307281 -0.201538,-0.5477684 -0.201537,-0.2170403 -0.4650862,-0.2170403 -0.2377108,0 -0.5012598,0.1808669 -0.2635489,0.1756993 -0.5994447,0.6976296 v 2.8783681 h 0.3617339 q 0.1550288,0 0.222208,0.06201 0.067179,0.05684 0.067179,0.155028 0,0.09302 -0.067179,0.155029 -0.067179,0.06201 -0.222208,0.06201 H 8.3516791 V 7.6545919 q 0,-0.346231 -0.2067051,-0.568439 -0.2015375,-0.2273755 -0.4547512,-0.2273755 -0.2325432,0 -0.4599188,0.1498611 -0.3152252,0.2118727 -0.6614562,0.7286354 v 2.8783681 h 0.3669015 q 0.1550288,0 0.222208,0.06201 0.067179,0.05684 0.067179,0.155028 0,0.09302 -0.067179,0.155029 -0.067179,0.06201 -0.222208,0.06201 H 5.7678657 q -0.1550288,0 -0.222208,-0.06201 -0.067179,-0.06201 -0.067179,-0.155029 0,-0.09819 0.067179,-0.155028 0.067179,-0.06201 0.222208,-0.06201 H 6.1347672 V 7.0138062 H 5.7678657 q -0.1550288,0 -0.222208,-0.062012 -0.067179,-0.062012 -0.067179,-0.1601964 0,-0.093017 0.067179,-0.1550288 0.067179,-0.062011 0.222208,-0.062011 z"
         style="font-family:monospace;-inkscape-font-specification:monospace"
         id="path9449" />
      <path
         d="m 17.322679,8.8224755 q 0,0.9921844 -0.713132,1.6949815 -0.707965,0.702797 -1.710485,0.702797 -1.012855,0 -1.72082,-0.702797 -0.707965,-0.7079648 -0.707965,-1.6949815 0,-0.9921843 0.707965,-1.6949816 0.707965,-0.7079648 1.72082,-0.7079648 1.00252,0 1.710485,0.7027972 0.713132,0.7027973 0.713132,1.7001492 z m -0.439248,0 q 0,-0.816485 -0.583942,-1.3900916 -0.578774,-0.5736065 -1.405595,-0.5736065 -0.82682,0 -1.410762,0.5787742 -0.578774,0.5736065 -0.578774,1.3849239 0,0.8061498 0.578774,1.3849245 0.583942,0.578774 1.410762,0.578774 0.826821,0 1.405595,-0.573607 0.583942,-0.5787741 0.583942,-1.3900915 z"
         style="font-family:monospace;-inkscape-font-specification:monospace"
         id="path9451" />
      <path
         d="M 21.627312,11.049723 H 20.893509 L 19.110678,7.0138062 h -0.444416 q -0.155029,0 -0.222208,-0.062012 -0.06718,-0.062012 -0.06718,-0.1601964 0,-0.093017 0.06718,-0.1550288 0.06718,-0.062011 0.222208,-0.062011 h 1.627802 q 0.155029,0 0.222208,0.062011 0.06718,0.062011 0.06718,0.1601964 0,0.093017 -0.06718,0.1550288 -0.06718,0.062012 -0.222208,0.062012 h -0.7183 l 1.591629,3.6018358 h 0.191202 l 1.560624,-3.6018358 h -0.723468 q -0.155029,0 -0.222208,-0.062012 -0.06718,-0.062012 -0.06718,-0.1601964 0,-0.093017 0.06718,-0.1550288 0.06718,-0.062011 0.222208,-0.062011 h 1.63297 q 0.160196,0 0.222208,0.062011 0.06718,0.062011 0.06718,0.1601964 0,0.093017 -0.06718,0.1550288 -0.06201,0.062012 -0.222208,0.062012 h -0.439248 z"
         style="font-family:monospace;-inkscape-font-specification:monospace"
         id="path9453" />
      <path
         d="m 29.947191,8.9154928 h -4.423489 q 0.113688,0.8423232 0.702798,1.3590862 0.594277,0.511595 1.467606,0.511595 0.485757,0 1.018022,-0.160197 0.532266,-0.160196 0.868161,-0.423745 0.09819,-0.07752 0.170532,-0.07752 0.08268,0 0.144694,0.06718 0.06201,0.06201 0.06201,0.149861 0,0.08785 -0.08268,0.170531 -0.248046,0.258382 -0.883664,0.485757 -0.63045,0.222208 -1.297074,0.222208 -1.116208,0 -1.865514,-0.728635 -0.744138,-0.733803 -0.744138,-1.772496 0,-0.9456757 0.69763,-1.6226348 0.702797,-0.6769591 1.736322,-0.6769591 1.064532,0 1.751826,0.6976296 0.687294,0.692462 0.676959,1.7983341 z M 29.507943,8.4762445 Q 29.378752,7.7579444 28.825816,7.3083609 28.278048,6.8587774 27.518406,6.8587774 q -0.759641,0 -1.307409,0.4444159 -0.547769,0.4444159 -0.682127,1.1730512 z"
         style="font-family:monospace;-inkscape-font-specification:monospace"
         id="path9455" />
      <path
         d="m 40.520155,4.5643511 v 6.0512909 h 1.705317 q 0.160196,0 0.227376,0.06201 0.06718,0.05684 0.06718,0.155028 0,0.09302 -0.06718,0.155029 -0.06718,0.06201 -0.227376,0.06201 h -3.844714 q -0.155029,0 -0.222208,-0.06201 -0.06718,-0.06201 -0.06718,-0.155029 0,-0.09819 0.06718,-0.155028 0.06718,-0.06201 0.222208,-0.06201 h 1.705316 V 5.0035993 h -1.250565 q -0.155029,0 -0.227376,-0.062012 -0.06718,-0.062011 -0.06718,-0.1601964 0,-0.093017 0.06718,-0.1550288 0.06718,-0.062012 0.227376,-0.062012 z"
         style="font-family:monospace;-inkscape-font-specification:monospace"
         id="path9457" />
      <path
         d="m 49.000231,8.9154928 h -4.423489 q 0.113688,0.8423232 0.702797,1.3590862 0.594277,0.511595 1.467606,0.511595 0.485757,0 1.018023,-0.160197 0.532265,-0.160196 0.868161,-0.423745 0.09818,-0.07752 0.170532,-0.07752 0.08268,0 0.144693,0.06718 0.06201,0.06201 0.06201,0.149861 0,0.08785 -0.08268,0.170531 -0.248046,0.258382 -0.883664,0.485757 -0.630451,0.222208 -1.297075,0.222208 -1.116207,0 -1.865513,-0.728635 -0.744138,-0.733803 -0.744138,-1.772496 0,-0.9456757 0.697629,-1.6226348 0.702798,-0.6769591 1.736323,-0.6769591 1.064531,0 1.751825,0.6976296 0.687295,0.692462 0.67696,1.7983341 z M 48.560982,8.4762445 q -0.12919,-0.7183001 -0.682126,-1.1678836 -0.547769,-0.4495835 -1.30741,-0.4495835 -0.759641,0 -1.30741,0.4444159 -0.547768,0.4444159 -0.682126,1.1730512 z"
         style="font-family:monospace;-inkscape-font-specification:monospace"
         id="path9459" />
      <path
         d="m 52.715754,7.0138062 v 3.6018358 h 1.906854 q 0.155029,0 0.222208,0.06201 0.06718,0.05684 0.06718,0.155028 0,0.09302 -0.06718,0.155029 -0.06718,0.06201 -0.222208,0.06201 h -3.39513 q -0.155029,0 -0.222208,-0.06201 -0.06718,-0.06201 -0.06718,-0.155029 0,-0.09819 0.06718,-0.155028 0.06718,-0.06201 0.222208,-0.06201 h 1.049028 V 7.0138062 h -0.940508 q -0.155029,0 -0.222208,-0.062012 -0.06718,-0.062012 -0.06718,-0.1601964 0,-0.093017 0.06718,-0.1550288 0.06718,-0.062011 0.222208,-0.062011 h 0.940508 V 5.9182693 q 0,-0.5477685 0.444416,-0.9508433 0.444416,-0.4030749 1.178219,-0.4030749 0.614947,0 1.312577,0.1136878 0.263549,0.041341 0.315225,0.098185 0.05684,0.056844 0.05684,0.1498611 0,0.093017 -0.06201,0.1550288 -0.06201,0.056844 -0.165364,0.056844 -0.04134,0 -0.139526,-0.015503 -0.780311,-0.1188555 -1.317744,-0.1188555 -0.568439,0 -0.878497,0.2790519 -0.30489,0.2790518 -0.30489,0.6356181 v 0.6562886 h 2.030877 q 0.155029,0 0.222208,0.062011 0.06718,0.062011 0.06718,0.1601964 0,0.093017 -0.06718,0.1550288 -0.06718,0.062012 -0.222208,0.062012 z"
         style="font-family:monospace;-inkscape-font-specification:monospace"
         id="path9461" />
      <path
         d="m 58.462155,6.5745579 h 2.356438 q 0.155029,0 0.222208,0.062011 0.06718,0.062011 0.06718,0.1601964 0,0.093017 -0.06718,0.1550288 -0.06718,0.062012 -0.222208,0.062012 h -2.356438 v 2.8887033 q 0,0.3772365 0.299722,0.6304505 0.30489,0.253214 0.888832,0.253214 0.439248,0 0.950843,-0.129191 0.511595,-0.134358 0.795815,-0.299722 0.103352,-0.06718 0.170532,-0.06718 0.08268,0 0.144693,0.06718 0.06201,0.06201 0.06201,0.149861 0,0.07751 -0.06718,0.144693 -0.165365,0.170532 -0.80615,0.37207 -0.635618,0.196369 -1.21956,0.196369 -0.759641,0 -1.209225,-0.356566 -0.449583,-0.356566 -0.449583,-0.9611785 V 7.0138062 h -0.800983 q -0.155028,0 -0.222207,-0.062012 -0.06718,-0.062012 -0.06718,-0.1601964 0,-0.093017 0.06718,-0.1550288 0.06718,-0.062011 0.222207,-0.062011 h 0.800983 V 5.2929864 q 0,-0.1550288 0.06201,-0.2222079 0.06201,-0.067179 0.155029,-0.067179 0.09819,0 0.160196,0.067179 0.06201,0.067179 0.06201,0.2222079 z"
         style="font-family:monospace;-inkscape-font-specification:monospace"
         id="path9463" />
    </g>
    <g
       id="g9358"
       transform="translate(-0.07745132,0.05163421)">
      <circle
         style="fill:#cccccc;stroke-width:0.747841;stroke-linejoin:round"
         id="path9104"
         cx="2.1490641"
         cy="2.0199783"
         r="1.3229166" />
      <rect
         style="fill:#808080;stroke-width:0.79375;stroke-linejoin:round"
         id="rect9252"
         width="0.3356224"
         height="1.329581"
         x="1.9879173"
         y="1.3553983"
         ry="0" />
      <rect
         style="fill:#808080;stroke-width:0.79375;stroke-linejoin:round"
         id="rect9353"
         width="0.3356224"
         height="1.329581"
         x="1.8523777"
         y="-2.820519"
         ry="0"
         transform="rotate(90)" />
    </g>
    <g
       id="g9366"
       transform="translate(-0.07745132,12.753651)">
      <circle
         style="fill:#cccccc;stroke-width:0.747841;stroke-linejoin:round"
         id="circle9360"
         cx="2.1490641"
         cy="2.0199783"
         r="1.3229166" />
      <rect
         style="fill:#808080;stroke-width:0.79375;stroke-linejoin:round"
         id="rect9362"
         width="0.3356224"
         height="1.329581"
         x="1.9879173"
         y="1.3553983"
         ry="0" />
      <rect
         style="fill:#808080;stroke-width:0.79375;stroke-linejoin:round"
         id="rect9364"
         width="0.3356224"
         height="1.329581"
         x="1.8523777"
         y="-2.820519"
         ry="0"
         transform="rotate(90)" />
    </g>
    <g
       id="g9374"
       transform="translate(63.406816,0.05163421)">
      <circle
         style="fill:#cccccc;stroke-width:0.747841;stroke-linejoin:round"
         id="circle9368"
         cx="2.1490641"
         cy="2.0199783"
         r="1.3229166" />
      <rect
         style="fill:#808080;stroke-width:0.79375;stroke-linejoin:round"
         id="rect9370"
         width="0.3356224"
         height="1.329581"
         x="1.9879173"
         y="1.3553983"
         ry="0" />
      <rect
         style="fill:#808080;stroke-width:0.79375;stroke-linejoin:round"
         id="rect9372"
         width="0.3356224"
         height="1.329581"
         x="1.8523777"
         y="-2.820519"
         ry="0"
         transform="rotate(90)" />
    </g>
    <g
       id="g9382"
       transform="translate(63.406816,12.753651)">
      <circle
         style="fill:#cccccc;stroke-width:0.747841;stroke-linejoin:round"
         id="circle9376"
         cx="2.1490641"
         cy="2.0199783"
         r="1.3229166" />
      <rect
         style="fill:#808080;stroke-width:0.79375;stroke-linejoin:round"
         id="rect9378"
         width="0.3356224"
         height="1.329581"
         x="1.9879173"
         y="1.3553983"
         ry="0" />
      <rect
         style="fill:#808080;stroke-width:0.79375;stroke-linejoin:round"
         id="rect9380"
         width="0.3356224"
         height="1.329581"
         x="1.8523777"
         y="-2.820519"
         ry="0"
         transform="rotate(90)" />
    </g>
  </g>
</svg>
