<?xml version="1.0" encoding="UTF-8" standalone="no"?>
<!-- Created with Inkscape (http://www.inkscape.org/) -->

<svg
   width="256.51266"
   height="64"
   viewBox="0 0 67.868975 16.933334"
   version="1.1"
   id="svg5"
   inkscape:version="1.1.1 (3bf5ae0d25, 2021-09-20)"
   sodipodi:docname="repeat.svg"
   xmlns:inkscape="http://www.inkscape.org/namespaces/inkscape"
   xmlns:sodipodi="http://sodipodi.sourceforge.net/DTD/sodipodi-0.dtd"
   xmlns:xlink="http://www.w3.org/1999/xlink"
   xmlns="http://www.w3.org/2000/svg"
   xmlns:svg="http://www.w3.org/2000/svg">
  <sodipodi:namedview
     id="namedview7"
     pagecolor="#505050"
     bordercolor="#eeeeee"
     borderopacity="1"
     inkscape:pageshadow="0"
     inkscape:pageopacity="0"
     inkscape:pagecheckerboard="0"
     inkscape:document-units="px"
     showgrid="false"
     inkscape:zoom="2.5620932"
     inkscape:cx="86.062444"
     inkscape:cy="47.617316"
     inkscape:window-width="1620"
     inkscape:window-height="1018"
     inkscape:window-x="-6"
     inkscape:window-y="-6"
     inkscape:window-maximized="1"
     inkscape:current-layer="layer1"
     units="px"
     width="64px"
     fit-margin-top="0"
     fit-margin-left="0"
     fit-margin-right="0"
     fit-margin-bottom="0" />
  <defs
     id="defs2">
    <linearGradient
       inkscape:collect="always"
       id="linearGradient9518">
      <stop
         style="stop-color:#d3d3d3;stop-opacity:1"
         offset="0"
         id="stop9514" />
      <stop
         style="stop-color:#a9a9a9;stop-opacity:1"
         offset="1"
         id="stop9516" />
    </linearGradient>
    <linearGradient
       inkscape:collect="always"
       xlink:href="#linearGradient9518"
       id="linearGradient9520"
       x1="28.186417"
       y1="16.791153"
       x2="28.186417"
       y2="-1.6103421"
       gradientUnits="userSpaceOnUse" />
  </defs>
  <g
     inkscape:label="Layer 1"
     inkscape:groupmode="layer"
     id="layer1">
    <path
       id="rect3863"
       style="fill:url(#linearGradient9520);stroke-width:1.71071;stroke-linejoin:round;fill-opacity:1"
       d="M 2.0137107,0 H 65.855262 c 1.115596,0 2.013711,0.89811499 2.013711,2.0137107 V 14.919624 c 0,1.115595 -0.898115,2.01371 -2.013711,2.01371 H 2.0137107 C 0.89811499,16.933334 0,16.035219 0,14.919624 V 2.0137107 C 0,0.89811499 0.89811499,0 2.0137107,0 Z" />
    <g
       id="g9358"
       transform="translate(-0.07745132,0.05163421)">
      <circle
         style="fill:#cccccc;stroke-width:0.747841;stroke-linejoin:round"
         id="path9104"
         cx="2.1490641"
         cy="2.0199783"
         r="1.3229166" />
      <rect
         style="fill:#808080;stroke-width:0.79375;stroke-linejoin:round"
         id="rect9252"
         width="0.3356224"
         height="1.329581"
         x="1.9879173"
         y="1.3553983"
         ry="0" />
      <rect
         style="fill:#808080;stroke-width:0.79375;stroke-linejoin:round"
         id="rect9353"
         width="0.3356224"
         height="1.329581"
         x="1.8523777"
         y="-2.820519"
         ry="0"
         transform="rotate(90)" />
    </g>
    <g
       id="g9366"
       transform="translate(-0.07745132,12.753651)">
      <circle
         style="fill:#cccccc;stroke-width:0.747841;stroke-linejoin:round"
         id="circle9360"
         cx="2.1490641"
         cy="2.0199783"
         r="1.3229166" />
      <rect
         style="fill:#808080;stroke-width:0.79375;stroke-linejoin:round"
         id="rect9362"
         width="0.3356224"
         height="1.329581"
         x="1.9879173"
         y="1.3553983"
         ry="0" />
      <rect
         style="fill:#808080;stroke-width:0.79375;stroke-linejoin:round"
         id="rect9364"
         width="0.3356224"
         height="1.329581"
         x="1.8523777"
         y="-2.820519"
         ry="0"
         transform="rotate(90)" />
    </g>
    <g
       id="g9374"
       transform="translate(63.406816,0.05163421)">
      <circle
         style="fill:#cccccc;stroke-width:0.747841;stroke-linejoin:round"
         id="circle9368"
         cx="2.1490641"
         cy="2.0199783"
         r="1.3229166" />
      <rect
         style="fill:#808080;stroke-width:0.79375;stroke-linejoin:round"
         id="rect9370"
         width="0.3356224"
         height="1.329581"
         x="1.9879173"
         y="1.3553983"
         ry="0" />
      <rect
         style="fill:#808080;stroke-width:0.79375;stroke-linejoin:round"
         id="rect9372"
         width="0.3356224"
         height="1.329581"
         x="1.8523777"
         y="-2.820519"
         ry="0"
         transform="rotate(90)" />
    </g>
    <g
       id="g9382"
       transform="translate(63.406816,12.753651)">
      <circle
         style="fill:#cccccc;stroke-width:0.747841;stroke-linejoin:round"
         id="circle9376"
         cx="2.1490641"
         cy="2.0199783"
         r="1.3229166" />
      <rect
         style="fill:#808080;stroke-width:0.79375;stroke-linejoin:round"
         id="rect9378"
         width="0.3356224"
         height="1.329581"
         x="1.9879173"
         y="1.3553983"
         ry="0" />
      <rect
         style="fill:#808080;stroke-width:0.79375;stroke-linejoin:round"
         id="rect9380"
         width="0.3356224"
         height="1.329581"
         x="1.8523777"
         y="-2.820519"
         ry="0"
         transform="rotate(90)" />
    </g>
    <g
       aria-label="repeat 3"
       id="text13062"
       style="font-size:10.5833px;line-height:1.25;font-family:'Segoe UI';-inkscape-font-specification:'Segoe UI';stroke-width:0.264583">
      <path
         d="m 8.0744517,6.2590414 v 1.0955369 q 0.8474908,-0.7648088 1.2660686,-0.9818491 0.4237454,-0.222208 0.7803117,-0.222208 0.387572,0 0.7183,0.263549 0.335896,0.2583814 0.335896,0.3927397 0,0.098185 -0.06718,0.165364 -0.06201,0.062012 -0.160197,0.062012 -0.05168,0 -0.08785,-0.015503 -0.03617,-0.02067 -0.134359,-0.1188554 -0.180867,-0.1808669 -0.315225,-0.2480461 -0.134358,-0.067179 -0.263549,-0.067179 -0.2842194,0 -0.6872943,0.2273756 -0.3979073,0.2273756 -1.384924,1.1110397 v 2.3771088 h 1.9223572 q 0.1601961,0 0.2273751,0.06201 0.06718,0.05684 0.06718,0.155029 0,0.09302 -0.06718,0.155029 -0.06718,0.06201 -0.2273751,0.06201 H 6.5913428 q -0.1550288,0 -0.2222079,-0.05684 -0.067179,-0.06201 -0.067179,-0.155028 0,-0.08785 0.062012,-0.144694 0.067179,-0.06201 0.2273755,-0.06201 H 7.6403711 V 6.6982897 H 6.8393889 q -0.1550288,0 -0.2222079,-0.062012 -0.067179,-0.062012 -0.067179,-0.1601965 0,-0.093017 0.062012,-0.1550288 0.067179,-0.062011 0.2273755,-0.062011 z"
         style="font-family:mono;-inkscape-font-specification:mono"
         id="path15121" />
      <path
         d="m 17.293498,8.5999763 h -4.423489 q 0.113688,0.8423232 0.702797,1.3590859 0.594278,0.5115948 1.467607,0.5115948 0.485756,0 1.018022,-0.160196 0.532266,-0.160197 0.868161,-0.4237456 0.09819,-0.077514 0.170532,-0.077514 0.08268,0 0.144694,0.067179 0.06201,0.062012 0.06201,0.1498608 0,0.08785 -0.08268,0.170532 -0.248046,0.258381 -0.883664,0.485757 -0.630451,0.222208 -1.297074,0.222208 -1.116208,0 -1.865514,-0.728635 -0.744138,-0.7338035 -0.744138,-1.7724965 0,-0.9456757 0.69763,-1.6226348 0.702797,-0.6769591 1.736322,-0.6769591 1.064531,0 1.751826,0.6976296 0.687294,0.692462 0.676959,1.7983341 z M 16.854249,8.1607281 q -0.12919,-0.7183002 -0.682126,-1.1678837 -0.547769,-0.4495835 -1.30741,-0.4495835 -0.759641,0 -1.307409,0.4444159 -0.547769,0.4444159 -0.682127,1.1730513 z"
         style="font-family:mono;-inkscape-font-specification:mono"
         id="path15123" />
      <path
         d="m 19.660271,6.2590414 v 0.7906469 q 0.387572,-0.470254 0.831988,-0.7079649 0.444416,-0.2377108 1.049028,-0.2377108 0.640786,0 1.183386,0.2997224 0.542601,0.2997223 0.837156,0.8371555 0.299722,0.5322656 0.299722,1.121375 0,0.9353405 -0.671791,1.6019643 -0.666624,0.6614562 -1.643306,0.6614562 -1.162716,0 -1.886183,-0.9456757 v 2.6148187 h 1.054196 q 0.155028,0 0.222208,0.05684 0.06718,0.06201 0.06718,0.160197 0,0.09302 -0.06718,0.155029 -0.06718,0.06201 -0.222208,0.06201 h -2.072219 q -0.155029,0 -0.222208,-0.06201 -0.06718,-0.05684 -0.06718,-0.155029 0,-0.09819 0.06718,-0.160197 0.06718,-0.05684 0.222208,-0.05684 H 19.22619 V 6.6982897 h -0.583942 q -0.155029,0 -0.222208,-0.062012 -0.06718,-0.062012 -0.06718,-0.1601965 0,-0.093017 0.06718,-0.1550288 0.06718,-0.062011 0.222208,-0.062011 z m 3.762032,2.1032241 q 0,-0.7493059 -0.547768,-1.2815714 -0.542601,-0.5374332 -1.328081,-0.5374332 -0.790646,0 -1.338415,0.5374332 -0.547768,0.5374332 -0.547768,1.2815714 0,0.7493059 0.547768,1.2867391 0.547769,0.5374334 1.338415,0.5374334 0.780312,0 1.328081,-0.5322658 0.547768,-0.5374332 0.547768,-1.2919067 z"
         style="font-family:mono;-inkscape-font-specification:mono"
         id="path15125" />
      <path
         d="m 29.995524,8.5999763 h -4.423488 q 0.113687,0.8423232 0.702797,1.3590859 0.594277,0.5115948 1.467606,0.5115948 0.485757,0 1.018022,-0.160196 0.532266,-0.160197 0.868162,-0.4237456 0.09818,-0.077514 0.170531,-0.077514 0.08268,0 0.144694,0.067179 0.06201,0.062012 0.06201,0.1498608 0,0.08785 -0.08268,0.170532 -0.248046,0.258381 -0.883664,0.485757 -0.63045,0.222208 -1.297074,0.222208 -1.116208,0 -1.865513,-0.728635 -0.744139,-0.7338035 -0.744139,-1.7724965 0,-0.9456757 0.69763,-1.6226348 0.702797,-0.6769591 1.736323,-0.6769591 1.064531,0 1.751825,0.6976296 0.687294,0.692462 0.676959,1.7983341 z M 29.556276,8.1607281 Q 29.427085,7.4424279 28.874149,6.9928444 28.326381,6.5432609 27.56674,6.5432609 q -0.759642,0 -1.30741,0.4444159 -0.547768,0.4444159 -0.682127,1.1730513 z"
         style="font-family:mono;-inkscape-font-specification:mono"
         id="path15127" />
      <path
         d="m 35.245833,10.734206 v -0.625283 q -0.945676,0.795815 -2.020542,0.795815 -0.780312,0 -1.21956,-0.39274 -0.439248,-0.397907 -0.439248,-0.9715136 0,-0.6304505 0.578774,-1.1007045 0.578774,-0.470254 1.689814,-0.470254 0.299722,0 0.651121,0.041341 0.351398,0.036173 0.759641,0.1188554 V 7.4269251 q 0,-0.3565663 -0.330728,-0.6201152 -0.330728,-0.263549 -0.992185,-0.263549 -0.506427,0 -1.421097,0.2945547 -0.165364,0.051676 -0.211873,0.051676 -0.08268,0 -0.144693,-0.062012 -0.05684,-0.062012 -0.05684,-0.1550288 0,-0.08785 0.05168,-0.139526 0.07235,-0.077514 0.583942,-0.2118727 0.80615,-0.2170403 1.21956,-0.2170403 0.821653,0 1.281571,0.4082425 0.459919,0.4030749 0.459919,0.91467 v 2.8732009 h 0.578774 q 0.160197,0 0.227376,0.06201 0.06718,0.05684 0.06718,0.155029 0,0.09302 -0.06718,0.155029 -0.06718,0.06201 -0.227376,0.06201 z m 0,-2.1600678 q -0.30489,-0.08785 -0.645954,-0.1291907 -0.341063,-0.041341 -0.7183,-0.041341 -0.945675,0 -1.477941,0.4082425 -0.403075,0.30489 -0.403075,0.7286354 0,0.3927396 0.30489,0.6614566 0.310058,0.268716 0.899167,0.268716 0.563272,0 1.043861,-0.222208 0.485757,-0.227375 0.997352,-0.7182998 z"
         style="font-family:mono;-inkscape-font-specification:mono"
         id="path15129" />
      <path
         d="m 39.457449,6.2590414 h 2.356437 q 0.155029,0 0.222208,0.062011 0.06718,0.062012 0.06718,0.1601965 0,0.093017 -0.06718,0.1550288 -0.06718,0.062012 -0.222208,0.062012 h -2.356437 v 2.8887034 q 0,0.3772367 0.299722,0.6304509 0.30489,0.253213 0.888832,0.253213 0.439248,0 0.950843,-0.12919 0.511595,-0.134359 0.795815,-0.299723 0.103352,-0.067179 0.170531,-0.067179 0.08268,0 0.144694,0.067179 0.06201,0.06201 0.06201,0.149861 0,0.07752 -0.06718,0.144694 -0.165364,0.170532 -0.80615,0.372069 -0.635618,0.19637 -1.21956,0.19637 -0.759641,0 -1.209224,-0.356566 Q 39.0182,10.191605 39.0182,9.5869931 V 6.6982897 h -0.800982 q -0.155029,0 -0.222208,-0.062012 -0.06718,-0.062012 -0.06718,-0.1601965 0,-0.093017 0.06718,-0.1550288 0.06718,-0.062011 0.222208,-0.062011 H 39.0182 V 4.97747 q 0,-0.1550288 0.06201,-0.222208 0.06201,-0.067179 0.155029,-0.067179 0.09818,0 0.160196,0.067179 0.06201,0.067179 0.06201,0.222208 z"
         style="font-family:mono;-inkscape-font-specification:mono"
         id="path15131" />
      <path
         d="m 53.942306,7.2047171 q 0.599445,0.2687166 0.91467,0.7389706 0.315225,0.4650865 0.315225,0.9715139 0,0.7803116 -0.635618,1.3797564 -0.63045,0.594277 -1.581294,0.594277 -0.558103,0 -1.157548,-0.237711 -0.599445,-0.237711 -0.837156,-0.485757 -0.07751,-0.08268 -0.07751,-0.1756991 0,-0.082682 0.05684,-0.1446935 0.06201,-0.062012 0.144694,-0.062012 0.08268,0 0.186034,0.077514 0.800982,0.5942767 1.694982,0.5942767 0.754473,0 1.260901,-0.4702537 0.511595,-0.4754216 0.511595,-1.0541958 0,-0.3875721 -0.253214,-0.7596412 -0.248046,-0.3720691 -0.7183,-0.5839418 -0.470254,-0.2170403 -0.950844,-0.2170403 -0.155028,0 -0.222207,-0.056844 -0.06718,-0.062011 -0.06718,-0.1601965 0,-0.093017 0.06201,-0.1550288 0.06718,-0.062012 0.19637,-0.062012 l 0.372069,0.00517 q 0.583942,0 0.961178,-0.3565662 0.382405,-0.3565662 0.382405,-0.8268203 0,-0.4857569 -0.397907,-0.857826 -0.397908,-0.3720692 -1.038693,-0.3720692 -0.449584,0 -0.826821,0.1550288 -0.377236,0.1550288 -0.604612,0.4237454 -0.08268,0.1033526 -0.129191,0.1291907 -0.04134,0.02067 -0.09819,0.02067 -0.08785,0 -0.149861,-0.056844 -0.06201,-0.062012 -0.06201,-0.1446935 0,-0.2067051 0.449583,-0.5219303 0.625283,-0.4392483 1.421098,-0.4392483 0.821652,0 1.34875,0.4960922 0.527098,0.4909245 0.527098,1.1730512 0,0.4340807 -0.253214,0.8216527 -0.253213,0.387572 -0.744138,0.6201152 z"
         style="font-family:mono;-inkscape-font-specification:mono"
         id="path15133" />
    </g>
  </g>
</svg>
